Coordinates
version=1
nRows=19
nColumns=38
inDegrees=no

Units are S.I. units (second, meters, Newtons, ...)
If the header above contains a line with 'inDegrees', this indicates whether rotational values are in degrees (yes) or radians (no).

endheader
time	pelvis_tilt	pelvis_list	pelvis_rotation	pelvis_tx	pelvis_ty	pelvis_tz	hip_flexion_r	hip_adduction_r	hip_rotation_r	knee_angle_r	ankle_angle_r	subtalar_angle_r	mtp_angle_r	hip_flexion_l	hip_adduction_l	hip_rotation_l	knee_angle_l	ankle_angle_l	subtalar_angle_l	mtp_angle_l	lumbar_extension	lumbar_bending	lumbar_rotation	arm_flex_r	arm_add_r	arm_rot_r	elbow_flex_r	pro_sup_r	wrist_flex_r	wrist_dev_r	arm_flex_l	arm_add_l	arm_rot_l	elbow_flex_l	pro_sup_l	wrist_flex_l	wrist_dev_l
0.016667	-0.34702	0.203109	0.27709	0.999874	0.919541	-0.354436	0.432696	-0.501673	-0.186902	-2.33818	0.227726	0.1	-0.000124659	0.821336	0.447002	-0.14156	-0.810157	0.414278	0.1	-0.0014551	0.0581742	-0.273633	-0.334027	-0.585051	-0.341908	-0.00127609	1.25398	2.08254	-0.00103888	0.000440825	-0.618815	-0.335203	-0.120795	1.91273	2.02871	0.0018568	-0.00311435
0.025	-0.273715	0.187453	0.221678	0.998884	0.921585	-0.3465	0.46895	-0.435488	-0.138404	-2.37018	0.232222	0.1	-0.000124659	0.709863	0.37982	-0.154062	-0.8336	0.453791	0.1	-0.0014551	-0.0147991	-0.241037	-0.318223	-0.568386	-0.332982	-0.00693424	1.1862	2.10056	-0.00103888	0.000440825	-0.570691	-0.34611	-0.114508	1.91468	2.01968	0.0018568	-0.00311435
0.033333	-0.217668	0.173344	0.174925	0.997609	0.923513	-0.340715	0.514381	-0.378249	-0.0959095	-2.39041	0.2398	0.1	-0.000124659	0.610679	0.324835	-0.164127	-0.844447	0.489964	0.1	-0.0014551	-0.0691081	-0.213053	-0.306413	-0.560265	-0.327222	-0.0137548	1.13157	2.11573	-0.00103888	0.000440825	-0.528624	-0.354034	-0.10808	1.92038	2.0152	0.0018568	-0.00311435
0.041667	-0.178291	0.160598	0.136465	0.996382	0.92523	-0.336641	0.568419	-0.329408	-0.0594036	-2.39882	0.250314	0.1	-0.000124659	0.523233	0.281505	-0.171922	-0.842828	0.522475	0.1	-0.0014551	-0.105304	-0.18934	-0.298376	-0.56051	-0.324556	-0.021691	1.08993	2.12801	-0.00103888	0.000440825	-0.492515	-0.359025	-0.101507	1.92973	2.01517	0.0018568	-0.00311435
0.05	-0.153873	0.148677	0.105333	0.995491	0.926795	-0.333863	0.629321	-0.287484	-0.0289238	-2.39525	0.263327	0.1	-0.000124659	0.44591	0.248311	-0.177976	-0.829126	0.550382	0.1	-0.0014551	-0.12501	-0.168984	-0.293526	-0.568618	-0.32476	-0.0306241	1.06079	2.13734	-0.00103888	0.000440825	-0.462104	-0.361246	-0.0947782	1.94246	2.01924	0.0018568	-0.00311435
0.058333	-0.141559	0.136721	0.0800481	0.995149	0.928381	-0.331995	0.694059	-0.250192	-0.00459934	-2.3795	0.278143	0.1	-0.000124659	0.376004	0.222779	-0.183342	-0.804037	0.572014	0.1	-0.0014551	-0.13101	-0.150548	-0.290971	-0.583751	-0.327439	-0.0403905	1.04329	2.14367	-0.00103888	0.000440825	-0.436983	-0.361005	-0.0878627	1.9581	2.0268	0.0018568	-0.00311435
0.066667	-0.137822	0.12372	0.0589335	0.995484	0.930232	-0.330697	0.758816	-0.21499	0.0134426	-2.3515	0.293947	0.1	-0.000124659	0.310236	0.201997	-0.189453	-0.768569	0.585049	0.1	-0.0014551	-0.126823	-0.132398	-0.289763	-0.60485	-0.332057	-0.0508359	1.03624	2.14704	-0.00103888	0.000440825	-0.416654	-0.358739	-0.0806955	1.97603	2.03697	0.0018568	-0.00311435
0.075	-0.139151	0.108824	0.040494	0.996553	0.932578	-0.329687	0.819808	-0.179689	0.0252726	-2.31144	0.309951	0.1	-0.000124659	0.245532	0.183261	-0.197842	-0.724022	0.586776	0.1	-0.0014551	-0.116045	-0.113071	-0.289159	-0.630789	-0.338013	-0.0618603	1.03825	2.14767	-0.00103888	0.000440825	-0.400606	-0.354972	-0.0731705	1.99558	2.04874	0.0018568	-0.00311435
0.083333	-0.142638	0.0915413	0.0236554	0.998357	0.935569	-0.328763	0.874017	-0.142841	0.0313307	-2.25989	0.325478	0.1	-0.000124659	0.179681	0.164529	-0.209884	-0.671979	0.574533	0.1	-0.0014551	-0.101768	-0.0915674	-0.288777	-0.660492	-0.344729	-0.0734248	1.04792	2.14595	-0.00103888	0.000440825	-0.388371	-0.350261	-0.0651586	2.01609	2.06104	0.0018568	-0.00311435
0.091667	-0.146287	0.071819	0.00781897	1.00085	0.939242	-0.327792	0.919608	-0.103852	0.0324704	-2.1977	0.340037	0.1	-0.000124659	0.111673	0.14455	-0.226677	-0.614298	0.546165	0.1	-0.0014551	-0.0862535	-0.0674848	-0.288606	-0.692985	-0.351705	-0.0855168	1.06386	2.14252	-0.00103888	0.000440825	-0.379557	-0.345157	-0.0565491	2.037	2.07294	0.0018568	-0.00311435
0.1	-0.149053	0.0500147	-0.00721118	1.00395	0.943531	-0.326699	0.955994	-0.0628834	0.0298908	-2.12597	0.353348	0.1	-0.000124659	0.0417235	0.122807	-0.248855	-0.553092	0.500458	0.1	-0.0014551	-0.0708465	-0.0410217	-0.288916	-0.727393	-0.358562	-0.0980921	1.08482	2.13814	-0.00103888	0.000440825	-0.37385	-0.340172	-0.047296	2.05792	2.0837	0.0018568	-0.00311435
0.108333	-0.15072	0.0268505	-0.0213468	1.00753	0.948281	-0.325445	0.98367	-0.0206994	0.0249974	-2.04587	0.365348	0.1	-0.000124659	-0.0289044	0.0993982	-0.276304	-0.490708	0.437524	0.1	-0.0014551	-0.0560541	-0.0129062	-0.290139	-0.762903	-0.365053	-0.111025	1.10962	2.13361	-0.00103888	0.000440825	-0.371	-0.335752	-0.0374477	2.07857	2.09279	0.0018568	-0.00311435
0.116667	-0.151694	0.00334375	-0.0343269	1.01145	0.953267	-0.32402	1.0039	0.0214607	0.0192144	-1.95854	0.376245	0.1	-0.000124659	-0.0982133	0.0749306	-0.307873	-0.429695	0.359063	0.1	-0.0014551	-0.0417361	0.015703	-0.292762	-0.798725	-0.371045	-0.124089	1.13718	2.12969	-0.00103888	0.000440825	-0.370777	-0.332257	-0.0271455	2.09882	2.09996	0.0018568	-0.00311435
0.125	-0.152761	-0.0192725	-0.045805	1.01552	0.958219	-0.322451	1.01837	0.0619953	0.0137993	-1.865	0.386532	0.1	-0.000124659	-0.163826	0.0504132	-0.341176	-0.372763	0.268491	0.1	-0.0014551	-0.0273455	0.043342	-0.297227	-0.83407	-0.37649	-0.136973	1.16648	2.12693	-0.00103888	0.000440825	-0.372934	-0.329937	-0.0165918	2.11855	2.10517	0.0018568	-0.00311435
0.133333	-0.154815	-0.0396565	-0.0554231	1.01954	0.962874	-0.320809	1.02877	0.0990896	0.00968705	-1.76615	0.396941	0.1	-0.000124659	-0.223352	0.0271335	-0.372658	-0.322715	0.170857	0.1	-0.0014551	-0.0121975	0.0684007	-0.303841	-0.868141	-0.381369	-0.149324	1.19653	2.12566	-0.00103888	0.000440825	-0.377158	-0.328923	-0.00600201	2.13764	2.1086	0.0018568	-0.00311435
0.141667	-0.158611	-0.0564998	-0.0628826	1.02333	0.967017	-0.319195	1.0365	0.130928	0.00739414	-1.6627	0.408304	0.1	-0.000124659	-0.274732	0.0064819	-0.398088	-0.282316	0.0724219	0.1	-0.0014551	0.00426185	0.0893135	-0.312695	-0.900134	-0.385653	-0.160797	1.22636	2.12596	-0.00103888	0.000440825	-0.383044	-0.329216	0.00444451	2.15591	2.1106	0.0018568	-0.00311435
0.15	-0.164542	-0.0686854	-0.0680098	1.02671	0.970498	-0.317729	1.0424	0.155922	0.00696336	-1.55535	0.421444	0.1	-0.000124659	-0.31652	-0.0102359	-0.413297	-0.254106	-0.0201173	0.1	-0.0014551	0.0222261	0.10476	-0.323595	-0.929263	-0.389255	-0.171106	1.25503	2.1277	-0.00103888	0.000440825	-0.390082	-0.3307	0.0146355	2.17304	2.11166	0.0018568	-0.00311435
0.158333	-0.172518	-0.0754432	-0.0708072	1.02957	0.97325	-0.316525	1.04659	0.172966	0.00799952	-1.44477	0.437045	0.1	-0.000124659	-0.348081	-0.0220059	-0.415227	-0.240209	-0.100746	0.1	-0.0014551	0.0413678	0.113849	-0.336032	-0.95479	-0.392019	-0.180058	1.28164	2.13054	-0.00103888	0.000440825	-0.397678	-0.333147	0.0245325	2.18861	2.11236	0.0018568	-0.00311435
0.166667	-0.181929	-0.0764888	-0.0714807	1.03187	0.975273	-0.315671	1.04857	0.181646	0.00979586	-1.33185	0.455516	0.1	-0.000124659	-0.369634	-0.0282509	-0.40266	-0.242155	-0.165161	0.1	-0.0014551	0.0608041	0.116252	-0.349209	-0.976065	-0.393721	-0.187564	1.30537	2.13404	-0.00103888	0.000440825	-0.405203	-0.336243	0.0341518	2.20208	2.11326	0.0018568	-0.00311435
